<svg width="258" height="218" viewBox="0 0 258 218" fill="none" xmlns="http://www.w3.org/2000/svg">
<path d="M32.8125 144.938C35 144.938 36.9141 145.234 38.5547 145.828C40.1953 146.422 41.5391 147.242 42.5859 148.289C43.6328 149.32 44.4766 150.641 45.1172 152.25C45.7734 153.844 46.2266 155.562 46.4766 157.406C46.7422 159.234 46.875 161.328 46.875 163.688V181.5H51.5625V189H29.0625V181.5H33.75V162.75C33.75 160.281 33.5234 158.359 33.0703 156.984C32.6328 155.609 31.9922 154.664 31.1484 154.148C30.3203 153.633 29.1875 153.375 27.75 153.375C26.4219 153.375 25.0547 153.945 23.6484 155.086C22.2578 156.227 20.9375 157.82 19.6875 159.867V181.5H24.375V189H1.875V181.5H6.5625V138.375H1.875V130.875H19.6875V152.273C20.25 151.227 20.9141 150.281 21.6797 149.438C22.4453 148.594 23.3516 147.828 24.3984 147.141C25.4453 146.438 26.6797 145.898 28.1016 145.523C29.5391 145.133 31.1094 144.938 32.8125 144.938ZM93.75 160.758V181.5H98.4375V189H83.8359L81.75 184.125C80.1562 186.406 78.3047 187.969 76.1953 188.812C74.1016 189.656 71.1719 190.078 67.4062 190.078C65.4531 190.078 63.6328 189.734 61.9453 189.047C60.2734 188.375 58.8438 187.453 57.6562 186.281C56.4844 185.109 55.5625 183.703 54.8906 182.062C54.2344 180.422 53.9062 178.664 53.9062 176.789C53.9062 173.555 55.1719 170.875 57.7031 168.75C60.2344 166.609 63.4688 165.539 67.4062 165.539C70.5781 165.539 73.2031 165.844 75.2812 166.453C77.3594 167.047 79.1406 168 80.625 169.312V159.375C80.625 157.969 80.4297 156.797 80.0391 155.859C79.6641 154.906 79.0938 154.18 78.3281 153.68C77.5625 153.164 76.7031 152.805 75.75 152.602C74.7969 152.398 73.6562 152.297 72.3281 152.297C71.2656 152.297 70.3047 152.523 69.4453 152.977C69.9297 153.992 70.1719 155.062 70.1719 156.188C70.1719 158.266 69.4375 160.039 67.9688 161.508C66.5156 162.961 64.75 163.688 62.6719 163.688C60.5938 163.688 58.8203 162.961 57.3516 161.508C55.8984 160.039 55.1719 158.266 55.1719 156.188C55.1719 155.125 55.375 154.125 55.7812 153.188C56.2031 152.25 56.7812 151.43 57.5156 150.727C58.1406 150.07 58.7891 149.484 59.4609 148.969C60.1328 148.438 60.9766 147.914 61.9922 147.398C63.0234 146.867 64.1406 146.43 65.3438 146.086C66.5469 145.742 67.9844 145.469 69.6562 145.266C71.3438 145.047 73.1875 144.938 75.1875 144.938C77.7812 144.938 80.2188 145.32 82.5 146.086C84.7812 146.852 86.75 147.914 88.4062 149.273C90.0625 150.633 91.3672 152.305 92.3203 154.289C93.2734 156.273 93.75 158.43 93.75 160.758ZM80.625 178.594V175.359C79.6562 174.438 78.5625 173.664 77.3438 173.039C76.1406 172.398 75.0234 172.078 73.9922 172.078C71.7734 172.078 70.2109 172.453 69.3047 173.203C68.3984 173.938 67.9453 175.133 67.9453 176.789C67.9453 178.773 68.3359 180.234 69.1172 181.172C69.8984 182.109 71.3516 182.578 73.4766 182.578C74.6797 182.578 75.9297 182.195 77.2266 181.43C78.5391 180.648 79.6719 179.703 80.625 178.594ZM132.258 144.797C135.914 144.797 139.016 145.734 141.562 147.609C144.109 149.484 146 152.102 147.234 155.461C148.484 158.82 149.109 162.82 149.109 167.461C149.109 170.852 148.664 173.953 147.773 176.766C146.898 179.578 145.664 181.953 144.07 183.891C142.492 185.812 140.578 187.305 138.328 188.367C136.094 189.414 133.641 189.938 130.969 189.938C129.625 189.938 128.359 189.812 127.172 189.562C125.984 189.328 124.969 189.031 124.125 188.672C123.297 188.312 122.508 187.867 121.758 187.336C121.008 186.805 120.398 186.305 119.93 185.836C119.477 185.367 119.031 184.844 118.594 184.266V196.5H123.281V204H100.781V196.5H105.469V153.375H100.781V145.875H114.703L117.539 151.336C118.148 150.477 118.844 149.695 119.625 148.992C122.719 146.195 126.93 144.797 132.258 144.797ZM118.594 176.32C120.375 179.602 122.797 181.242 125.859 181.242C128.953 181.242 131.25 180.031 132.75 177.609C134.266 175.188 135.023 171.75 135.023 167.297C135.023 165.203 134.773 163.273 134.273 161.508C133.789 159.727 133.133 158.25 132.305 157.078C131.492 155.906 130.555 155 129.492 154.359C128.43 153.703 127.32 153.375 126.164 153.375C124.602 153.375 123.211 153.812 121.992 154.688C120.789 155.547 119.656 156.828 118.594 158.531V176.32ZM185.32 144.797C188.977 144.797 192.078 145.734 194.625 147.609C197.172 149.484 199.062 152.102 200.297 155.461C201.547 158.82 202.172 162.82 202.172 167.461C202.172 170.852 201.727 173.953 200.836 176.766C199.961 179.578 198.727 181.953 197.133 183.891C195.555 185.812 193.641 187.305 191.391 188.367C189.156 189.414 186.703 189.938 184.031 189.938C182.688 189.938 181.422 189.812 180.234 189.562C179.047 189.328 178.031 189.031 177.188 188.672C176.359 188.312 175.57 187.867 174.82 187.336C174.07 186.805 173.461 186.305 172.992 185.836C172.539 185.367 172.094 184.844 171.656 184.266V196.5H176.344V204H153.844V196.5H158.531V153.375H153.844V145.875H167.766L170.602 151.336C171.211 150.477 171.906 149.695 172.688 148.992C175.781 146.195 179.992 144.797 185.32 144.797ZM171.656 176.32C173.438 179.602 175.859 181.242 178.922 181.242C182.016 181.242 184.312 180.031 185.812 177.609C187.328 175.188 188.086 171.75 188.086 167.297C188.086 165.203 187.836 163.273 187.336 161.508C186.852 159.727 186.195 158.25 185.367 157.078C184.555 155.906 183.617 155 182.555 154.359C181.492 153.703 180.383 153.375 179.227 153.375C177.664 153.375 176.273 153.812 175.055 154.688C173.852 155.547 172.719 156.828 171.656 158.531V176.32ZM206.273 203.461C205.445 202.211 205.031 200.828 205.031 199.312C205.031 197.234 205.758 195.461 207.211 193.992C208.68 192.539 210.453 191.812 212.531 191.812C214.609 191.812 216.375 192.539 217.828 193.992C219.297 195.461 220.031 197.234 220.031 199.312C220.031 199.75 219.992 200.172 219.914 200.578C219.977 200.594 220.031 200.602 220.078 200.602C221.203 200.602 222.578 198.742 224.203 195.023L225.961 190.992L209.438 153.375H205.031V145.875H231.281V153.375H223.57L231 170.25C231.953 172.469 232.641 174.344 233.062 175.875C233.484 174.344 234.172 172.469 235.125 170.25L242.531 153.375H235.969V145.875H255.656V153.375H250.688L235.031 189C234.219 190.844 233.484 192.43 232.828 193.758C232.188 195.102 231.461 196.461 230.648 197.836C229.852 199.227 229.078 200.398 228.328 201.352C227.578 202.305 226.727 203.211 225.773 204.07C224.836 204.93 223.859 205.609 222.844 206.109C221.828 206.625 220.703 207.023 219.469 207.305C218.234 207.602 216.906 207.75 215.484 207.75C214.156 207.75 212.984 207.641 211.969 207.422C210.953 207.219 210.086 206.906 209.367 206.484C208.664 206.078 208.078 205.633 207.609 205.148C207.141 204.68 206.695 204.117 206.273 203.461Z" fill="black"/>
<path d="M2.00001 127.834C2.00001 110.241 5.52887 93.9996 12.3697 77.8487C19.2106 61.6977 29.2188 47.1444 41.779 35.0836C54.3392 23.0228 69.1858 13.7094 85.4061 7.71608C101.626 1.72275 118.877 -0.82382 136.098 0.232942C153.319 1.28971 170.147 5.92746 185.545 13.8611C200.943 21.7947 214.588 32.8564 225.639 46.3661C236.69 59.8758 244.915 75.548 249.807 92.4189C254.699 109.29 256.32 125.534 254.251 143L237.269 143C239.059 127.896 237.635 111.955 233.405 97.3653C229.174 82.7756 222.061 69.2225 212.504 57.5395C202.947 45.8565 191.148 36.2905 177.832 29.4297C164.515 22.5688 149.963 18.5582 135.071 17.6443C120.178 16.7304 105.26 18.9327 91.2331 24.1156C77.206 29.2985 64.3669 37.3526 53.505 47.7826C42.6432 58.2126 33.9883 70.7981 28.0724 84.7652C22.1565 98.7323 19.1108 112.62 19.1108 127.834H2.00001Z" fill="#F98A94"/>
<path d="M226.013 142.739C228.102 129.163 227.209 116.557 223.749 103.271C220.289 89.9846 214.151 77.5657 205.721 66.7941C197.292 56.0225 186.752 47.1308 174.764 40.6774C162.776 34.2241 149.599 30.3485 136.06 29.294C122.521 28.2395 108.913 30.0289 96.0899 34.5498C83.267 39.0707 71.5065 46.2254 61.5468 55.5648C51.5871 64.9041 43.6435 76.2262 38.2146 88.8202C32.7858 101.414 29.9971 113.774 30.0082 127.514L46.6013 127.5C46.5921 116.075 48.9096 106.005 53.4239 95.5326C57.9382 85.0603 64.5437 75.6454 72.8256 67.8794C81.1075 60.1133 90.8869 54.1639 101.55 50.4045C112.212 46.6452 123.528 45.1573 134.786 46.0341C146.044 46.911 157.002 50.1337 166.97 55.5C176.939 60.8662 185.703 68.26 192.713 77.217C199.722 86.1741 204.826 96.5009 207.703 107.549C210.58 118.597 211.923 131.45 210.186 142.739L226.013 142.739Z" fill="#F8C46E"/>
<path d="M196.765 142.5C198.748 132.992 198.487 124.363 196.442 114.868C194.398 105.374 190.386 96.4131 184.665 88.5644C178.945 80.7156 171.643 74.153 163.23 69.2997C154.817 64.4464 145.481 61.4102 135.823 60.3869C126.165 59.3635 116.399 60.3758 107.156 63.3585C97.9136 66.3411 89.3985 71.2278 82.1602 77.7035C74.922 84.1792 69.1214 92.1001 65.1324 100.955C61.1435 109.811 59.0918 117.697 59.038 127.409H75.5C75.541 120.006 77.1588 114.492 80.1993 107.742C83.2398 100.993 87.6612 94.9551 93.1784 90.0192C98.6956 85.0832 105.186 81.3584 112.231 79.0849C119.277 76.8115 126.72 76.0399 134.082 76.8199C141.443 77.5999 148.56 79.9142 154.972 83.6135C161.385 87.3128 166.95 92.3151 171.311 98.2976C175.671 104.28 178.729 111.11 180.288 118.347C181.846 125.584 182.028 135.253 180.517 142.5L196.765 142.5Z" fill="#BED1E3"/>
<path d="M9.32 199.832C10.152 199.832 10.88 200.008 11.504 200.36C12.128 200.712 12.64 201.192 13.04 201.8C13.456 202.392 13.768 203.048 13.976 203.768C14.184 204.488 14.288 205.224 14.288 205.976C14.288 206.792 14.176 207.576 13.952 208.328C13.744 209.08 13.424 209.76 12.992 210.368C12.56 210.96 12.016 211.432 11.36 211.784C10.704 212.136 9.928 212.312 9.032 212.312C8.36 212.312 7.712 212.184 7.088 211.928C6.48 211.672 5.96 211.288 5.528 210.776L5.096 212.024H3.896C3.912 211.752 3.928 211.48 3.944 211.208C3.96 210.92 3.968 210.64 3.968 210.368V195.104L3.632 193.712H5.96V200.336C5.96 200.48 5.952 200.624 5.936 200.768C5.936 200.896 5.928 201.032 5.912 201.176C6.424 200.712 6.944 200.376 7.472 200.168C8.016 199.944 8.632 199.832 9.32 199.832ZM8.816 201.536C8.288 201.536 7.768 201.664 7.256 201.92C6.76 202.16 6.328 202.472 5.96 202.856V207.224C5.96 207.896 6.056 208.504 6.248 209.048C6.44 209.592 6.752 210.024 7.184 210.344C7.632 210.664 8.224 210.824 8.96 210.824C9.568 210.824 10.072 210.672 10.472 210.368C10.888 210.048 11.216 209.648 11.456 209.168C11.696 208.672 11.872 208.152 11.984 207.608C12.096 207.048 12.152 206.528 12.152 206.048C12.152 205.52 12.088 204.992 11.96 204.464C11.848 203.936 11.656 203.456 11.384 203.024C11.128 202.576 10.784 202.216 10.352 201.944C9.936 201.672 9.424 201.536 8.816 201.536ZM26.9748 199.784C28.2388 199.784 29.1908 200.128 29.8308 200.816C30.4708 201.504 30.7908 202.472 30.7908 203.72V209.696C30.7908 210.032 30.8548 210.264 30.9828 210.392C31.1108 210.504 31.2628 210.56 31.4388 210.56C31.5828 210.56 31.7348 210.544 31.8948 210.512C32.0548 210.464 32.2068 210.408 32.3508 210.344L32.7828 211.64C32.5268 211.784 32.1988 211.912 31.7988 212.024C31.4148 212.152 31.0148 212.216 30.5988 212.216C30.1828 212.216 29.8068 212.104 29.4708 211.88C29.1348 211.64 28.9268 211.208 28.8468 210.584C28.3828 211.08 27.8388 211.488 27.2148 211.808C26.5908 212.112 25.9348 212.264 25.2468 212.264C24.3028 212.264 23.5188 211.984 22.8948 211.424C22.2708 210.864 21.9588 210.096 21.9588 209.12C21.9588 208.208 22.1748 207.48 22.6068 206.936C23.0548 206.392 23.6308 205.984 24.3348 205.712C25.0388 205.44 25.7828 205.256 26.5668 205.16C27.3668 205.064 28.1108 205.016 28.7988 205.016V203.744C28.7988 203.296 28.7428 202.896 28.6308 202.544C28.5188 202.176 28.3188 201.888 28.0308 201.68C27.7428 201.456 27.3348 201.344 26.8068 201.344C26.1988 201.344 25.6148 201.464 25.0548 201.704C24.4948 201.944 23.9348 202.296 23.3748 202.76L22.3908 201.344C23.0468 200.816 23.7668 200.424 24.5508 200.168C25.3348 199.912 26.1428 199.784 26.9748 199.784ZM28.7988 206.576C28.3668 206.576 27.8788 206.6 27.3348 206.648C26.7908 206.68 26.2628 206.776 25.7508 206.936C25.2388 207.08 24.8148 207.32 24.4788 207.656C24.1588 207.992 23.9988 208.456 23.9988 209.048C23.9988 209.576 24.1748 209.968 24.5268 210.224C24.8948 210.464 25.3508 210.584 25.8948 210.584C26.4708 210.584 26.9748 210.424 27.4068 210.104C27.8388 209.784 28.1748 209.376 28.4148 208.88C28.6708 208.384 28.7988 207.872 28.7988 207.344V206.576ZM42.2182 193.712V204.992L46.6822 200.072H48.8182L44.2342 205.088L49.4662 212H47.0902L42.2182 205.52V212H40.2262V195.128L39.9142 193.712H42.2182ZM60.8056 199.784C61.7656 199.784 62.5736 199.984 63.2296 200.384C63.8856 200.768 64.3736 201.312 64.6936 202.016C65.0296 202.704 65.1976 203.512 65.1976 204.44C65.1976 204.664 65.1816 204.896 65.1496 205.136C65.1336 205.36 65.1096 205.6 65.0776 205.856H57.4936C57.4936 207.376 57.8296 208.552 58.5016 209.384C59.1736 210.216 60.0696 210.632 61.1896 210.632C61.6536 210.632 62.1336 210.56 62.6296 210.416C63.1416 210.272 63.6696 210.056 64.2136 209.768L64.9576 210.968C64.3976 211.416 63.7656 211.752 63.0616 211.976C62.3576 212.2 61.6456 212.312 60.9256 212.312C59.9816 212.312 59.1576 212.144 58.4536 211.808C57.7656 211.456 57.1896 210.992 56.7256 210.416C56.2776 209.824 55.9416 209.16 55.7176 208.424C55.4936 207.688 55.3816 206.936 55.3816 206.168C55.3816 205.368 55.4936 204.592 55.7176 203.84C55.9416 203.088 56.2776 202.408 56.7256 201.8C57.1896 201.176 57.7576 200.688 58.4296 200.336C59.1016 199.968 59.8936 199.784 60.8056 199.784ZM60.6136 201.296C60.0696 201.296 59.5896 201.448 59.1736 201.752C58.7576 202.056 58.4216 202.448 58.1656 202.928C57.9096 203.392 57.7336 203.872 57.6376 204.368H63.1096C63.1256 203.696 63.0296 203.136 62.8216 202.688C62.6296 202.224 62.3416 201.88 61.9576 201.656C61.5896 201.416 61.1416 201.296 60.6136 201.296ZM75.041 199.856C75.329 200.56 75.513 201.304 75.593 202.088C76.009 201.432 76.569 200.896 77.273 200.48C77.977 200.064 78.721 199.856 79.505 199.856L79.025 201.968C78.257 201.968 77.601 202.168 77.057 202.568C76.529 202.968 76.057 203.472 75.641 204.08V212H73.649V203.36C73.649 203.04 73.625 202.68 73.577 202.28C73.529 201.88 73.449 201.488 73.337 201.104C73.225 200.72 73.073 200.392 72.881 200.12L75.041 199.856ZM88.6496 200.072C89.0016 201.064 89.3456 202.056 89.6816 203.048C90.0336 204.04 90.3856 205.056 90.7376 206.096C90.9136 206.64 91.0896 207.192 91.2656 207.752C91.4576 208.296 91.6416 208.84 91.8176 209.384C91.9936 208.824 92.1696 208.272 92.3456 207.728C92.5376 207.184 92.7216 206.64 92.8976 206.096C93.2496 205.056 93.5936 204.04 93.9296 203.048C94.2816 202.056 94.6336 201.064 94.9856 200.072H96.8576L92.6336 212.048C92.4576 212.544 92.2336 213.088 91.9616 213.68C91.6896 214.288 91.3696 214.856 91.0016 215.384C90.6336 215.912 90.2016 216.344 89.7056 216.68C89.2096 217.032 88.6496 217.208 88.0256 217.208H87.1136V215.6C87.1616 215.6 87.2016 215.6 87.2336 215.6C87.2816 215.6 87.3296 215.6 87.3776 215.6C88.0496 215.6 88.6016 215.4 89.0336 215C89.4816 214.6 89.8496 214.112 90.1376 213.536C90.4256 212.976 90.6656 212.432 90.8576 211.904L86.4896 200.072H88.6496Z" fill="black"/>
</svg>
